<svg width="40" height="40" viewBox="0 0 40 40" fill="none" xmlns="http://www.w3.org/2000/svg">
<path d="M9.09347 24.8672C8.98781 24.867 8.88329 24.889 8.7866 24.9315C8.6899 24.9741 8.60316 25.0364 8.53193 25.1145C8.46069 25.1925 8.40654 25.2845 8.37293 25.3847C8.33931 25.4849 8.32699 25.5909 8.33673 25.6962C8.62801 28.7012 10.0278 31.4902 12.2633 33.5195C14.4988 35.5488 17.4098 36.673 20.429 36.673C23.4481 36.673 26.3591 35.5488 28.5946 33.5195C30.8301 31.4902 32.2299 28.7012 32.5212 25.6962C32.5309 25.5909 32.5186 25.4849 32.485 25.3847C32.4514 25.2845 32.3972 25.1925 32.326 25.1145C32.2548 25.0364 32.168 24.9741 32.0713 24.9315C31.9746 24.889 31.8701 24.867 31.7645 24.8672H9.09347Z" fill="#ADD3F0"/>
<path d="M9.0933 3.33594C11.8931 3.33594 14.5782 4.44814 16.5579 6.42787C18.5376 8.40761 19.6498 11.0927 19.6498 13.8925V22.4488C19.6498 22.6498 19.57 22.8426 19.4279 22.9847C19.2857 23.1268 19.093 23.2067 18.892 23.2067H9.0933C8.8923 23.2067 8.69954 23.1268 8.55742 22.9847C8.41529 22.8426 8.33545 22.6498 8.33545 22.4488V4.09379C8.33545 3.89279 8.41529 3.70003 8.55742 3.55791C8.69954 3.41578 8.8923 3.33594 9.0933 3.33594Z" fill="#1C2D66"/>
<path d="M22.0615 12.4453H22.5604C23.8689 12.4453 25.1646 12.703 26.3735 13.2038C27.5825 13.7045 28.6809 14.4385 29.6062 15.3638C30.5314 16.289 31.2654 17.3875 31.7662 18.5964C32.2669 19.8053 32.5246 21.101 32.5246 22.4096V22.4462C32.5246 22.6472 32.4448 22.84 32.3027 22.9821C32.1606 23.1242 31.9678 23.2041 31.7668 23.2041H26.1674C24.8771 23.2041 23.6397 22.6915 22.7274 21.7792C21.815 20.8668 21.3025 19.6294 21.3025 18.3392V13.1987C21.3037 12.9983 21.3842 12.8065 21.5264 12.6653C21.6687 12.5241 21.861 12.445 22.0615 12.4453Z" fill="#347EB8"/>
</svg>
